<svg width="480" height="480" viewBox="0 0 480 480" fill="none" xmlns="http://www.w3.org/2000/svg">
<g clip-path="url(#clip0_1_2)">
<path d="M365.863 80.8008C343.621 59.707 314.125 47.9649 283.473 48H190.402C158.555 47.9141 128 60.5703 105.543 83.1524L30.4648 158.227C10.8906 177.684 -0.0781378 204.168 -1.27551e-05 231.77V333.602C0.0859247 387.91 44.0898 431.918 98.4023 432H381.602C435.91 431.918 479.918 387.91 480 333.602V233.375C479.949 204.773 468.168 177.445 447.41 157.77L365.863 80.8008ZM464 333.602C463.934 379.082 427.082 415.934 381.602 416H98.4023C52.918 415.934 16.0664 379.082 16 333.602V231.77C15.9336 208.414 25.2187 186.004 41.7773 169.535L116.848 94.4649C136.312 74.8945 162.797 63.9219 190.402 64H283.473C310.035 63.957 335.598 74.1211 354.879 92.3945L436.426 169.402C453.996 186.055 463.965 209.191 464 233.402V333.602Z" fill="#FACD3D"/>
<path d="M190.402 96V80C182.07 79.9922 173.785 81.1641 165.785 83.4805L170.23 98.8399C176.789 96.9531 183.578 95.9961 190.402 96Z" fill="#FACD3D"/>
<path d="M139.48 117.09C144.324 112.234 149.836 108.098 155.848 104.801L148.152 90.7695C140.809 94.8008 134.074 99.8555 128.152 105.785L106.977 127.031L118.328 138.32L139.48 117.09Z" fill="#FACD3D"/>
<path d="M381.602 280H98.4023C78.6133 279.816 59.6562 272.008 45.4805 258.199L34.457 269.801C51.6016 286.441 74.5078 295.824 98.4023 296H381.602C405.492 295.824 428.398 286.441 445.543 269.801L434.52 258.199C420.344 272.008 401.387 279.816 381.602 280V280Z" fill="#FACD3D"/>
<path d="M135.137 215.609C126.336 218.273 117.633 221.207 109.082 224.551L114.922 239.449C195.395 208.273 284.609 208.273 365.082 239.449L370.922 224.551C362.367 221.191 353.656 218.273 344.863 215.609C353.496 195.082 371.758 180.18 393.602 175.84L390.402 160.16C362.773 165.629 339.805 184.73 329.391 210.898L329.25 211.273C270.652 196.473 209.293 196.473 150.695 211.273L150.543 210.906C140.148 184.75 117.203 165.648 89.6016 160.16L86.4023 175.84C108.242 180.18 126.504 195.082 135.137 215.609V215.609Z" fill="#FACD3D"/>
</g>
<defs>
<clipPath id="clip0_1_2">
<rect width="480" height="480" fill="white"/>
</clipPath>
</defs>
</svg>
