<svg width="173" height="32" viewBox="0 0 173 32" fill="none" xmlns="http://www.w3.org/2000/svg">
<path d="M122.267 10.9234C122.267 11.1515 122.267 11.3797 122.267 11.5793C122.267 18.5098 116.963 26.5241 107.266 26.5241C104.242 26.5526 101.504 25.697 99.1373 24.1854C99.5365 24.2424 99.9643 24.2424 100.392 24.2424C102.873 24.2424 105.155 23.4153 106.952 21.9893C104.642 21.9323 102.702 20.4207 102.018 18.3387C102.332 18.3957 102.702 18.3957 102.988 18.3957C103.444 18.3957 103.929 18.3387 104.357 18.1961C101.961 17.7398 100.107 15.5722 100.107 13.0624C100.107 13.0054 100.107 13.0053 100.107 13.0053C100.82 13.4046 101.647 13.6328 102.503 13.6613C101.077 12.7201 100.135 11.123 100.135 9.26916C100.135 8.29947 100.421 7.41533 100.848 6.64528C103.444 9.81105 107.323 11.9216 111.686 12.1212C111.629 11.7219 111.572 11.3226 111.572 10.8948C111.601 8.04278 113.939 5.7041 116.848 5.7041C118.389 5.7041 119.729 6.33155 120.699 7.32977C121.925 7.10161 123.009 6.6738 124.036 6.04635C123.636 7.27273 122.809 8.29947 121.725 8.92692C122.781 8.81284 123.807 8.52763 124.749 8.09982C124.178 9.24064 123.266 10.1533 122.267 10.9234Z" fill="white"/>
<path d="M60.943 9.38324C57.2923 9.38324 54.3262 12.3494 54.3262 16C54.3262 19.6506 57.2923 22.6168 60.943 22.6168C64.5936 22.6168 67.5597 19.6506 67.5597 16C67.5597 12.3494 64.5936 9.38324 60.943 9.38324ZM60.943 19.7932C58.8324 19.7932 57.1497 18.082 57.1497 16C57.1212 13.8895 58.861 12.2068 60.943 12.2068C63.025 12.2068 64.7362 13.918 64.7362 16C64.7647 18.1105 63.0535 19.7932 60.943 19.7932Z" fill="white"/>
<path d="M67.7308 7.64349C66.8752 7.64349 66.1907 8.35651 66.1907 9.1836C66.1907 10.0107 66.9037 10.7237 67.7308 10.7237C68.5865 10.7237 69.2709 10.0107 69.2709 9.1836C69.2709 8.35651 68.5865 7.64349 67.7308 7.64349Z" fill="white"/>
<path d="M67.303 3.13725H54.5544C50.9893 3.13725 48.0802 6.07486 48.0802 9.61141V22.3601C48.0802 25.9537 50.9893 28.8627 54.5544 28.8627H67.303C70.8966 28.8627 73.7772 25.9537 73.7772 22.3886V9.61141C73.7487 6.01782 70.8396 3.13725 67.303 3.13725ZM70.9537 22.3601C70.9537 24.385 69.2995 26.0107 67.303 26.0107H54.5544C52.5294 26.0107 50.9037 24.3565 50.9037 22.3601V9.61141C50.9037 7.58645 52.5579 5.96078 54.5544 5.96078H67.303C69.328 5.96078 70.9537 7.61497 70.9537 9.61141V22.3601Z" fill="white"/>
<path d="M164.472 6.84492H149.471C146.504 6.84492 144.137 9.26917 144.137 12.2638V19.8788C144.137 22.8734 146.504 25.2977 149.471 25.2977H164.444C167.381 25.2977 169.777 22.8734 169.777 19.8788V12.2638C169.806 9.26917 167.439 6.84492 164.472 6.84492ZM160.879 16.4278L153.863 19.8218C153.663 19.8788 153.463 19.7647 153.463 19.5936V12.5775C153.463 12.3779 153.692 12.2068 153.863 12.3494L160.879 15.943C161.078 16.0285 161.078 16.3423 160.879 16.4278Z" fill="white"/>
<path d="M21 8.76444H18.3229C17.9253 8.76444 17.2627 8.98444 17.2627 9.81556V12.1133H20.947L20.5494 15.9756H17.2627V27H12.3325V15.9756H10V12.0889H12.3325V9.59556C12.3325 7.78667 13.2337 5 17.3157 5H20.9735V8.76444H21V8.76444Z" fill="white"/>
</svg>
