<svg width="406" height="406" viewBox="0 0 406 406" fill="none" xmlns="http://www.w3.org/2000/svg">
<g clip-path="url(#clip0_1_2)">
<path d="M373.488 337.075L314.288 233.075C320.288 230.275 323.888 223.875 323.488 216.675L319.088 179.875L344.288 153.475C349.888 147.875 350.288 138.275 344.688 131.475L319.488 104.275L324.688 67.075C325.488 59.075 319.888 51.075 311.888 49.475L275.488 42.275L257.888 9.875C254.288 2.275 245.488 -0.925 237.488 2.275H237.088L203.488 17.875L170.688 1.875C167.088 -0.125 162.688 -0.525 158.688 0.675C154.688 1.875 151.488 4.675 149.488 8.275L131.488 40.675L95.088 47.075C86.688 48.675 81.088 56.275 81.888 65.075L86.288 101.875L61.088 128.275C55.488 133.875 55.088 143.475 60.688 150.275L85.888 177.475L80.688 214.675C79.888 221.875 84.288 228.675 91.088 231.475L31.488 337.075C29.888 339.475 30.288 342.675 31.488 345.075C33.088 347.475 35.488 349.075 38.288 349.075H102.288L131.488 399.875C133.088 402.275 135.488 403.875 138.288 403.875C141.088 403.875 143.888 402.275 145.088 399.875L202.288 302.275L259.488 401.075C261.088 403.475 263.488 405.075 266.288 405.075C269.088 405.075 271.888 403.475 273.088 401.075L302.288 349.075H366.288C369.088 349.075 371.888 347.475 373.088 345.075C375.088 342.675 375.088 339.475 373.488 337.075ZM138.688 379.875L113.888 337.075C112.288 334.675 109.888 333.075 107.088 333.075H51.888L107.088 235.475L129.888 239.475L147.488 271.875C151.088 279.475 159.888 282.675 167.888 279.475H168.288L184.688 271.875L192.688 285.875L138.688 379.875ZM161.888 265.075C161.488 265.075 161.488 265.075 161.488 265.075L143.888 231.875C141.488 227.875 137.488 224.675 132.688 224.275L95.888 217.475L101.088 180.675C101.888 175.875 100.288 170.675 97.088 167.475L72.288 140.275L97.488 113.875C101.088 110.275 102.688 105.475 101.888 100.675L97.488 64.275C97.488 64.275 97.488 63.875 97.888 63.475L134.288 57.075C138.688 56.275 143.088 53.475 145.488 49.075L163.488 16.675L196.288 32.675C200.688 35.075 206.288 35.075 210.688 32.675L243.888 17.475C244.288 17.475 244.288 17.475 244.288 17.475L261.888 50.675C264.288 54.675 268.288 57.875 272.688 58.275L309.088 65.475L303.888 102.275C303.088 107.075 304.688 112.275 307.888 115.475L333.088 142.675L307.488 169.075C303.888 172.675 302.288 177.475 303.088 182.275L307.488 219.075L271.488 225.075C267.088 225.875 262.688 228.675 260.288 233.075L242.288 265.475L209.488 249.475C205.088 247.075 199.488 247.075 195.088 249.475L161.888 265.075ZM297.888 333.075C295.088 333.075 292.288 334.675 291.088 337.075L266.288 381.075L209.888 283.475C209.488 282.275 209.088 281.475 208.288 280.675L199.488 265.075L202.288 263.875L235.088 279.875C237.488 281.075 239.888 281.475 242.288 281.475C247.888 281.475 253.488 278.675 256.288 273.475L274.288 241.075L298.288 236.675L353.088 333.075H297.888V333.075Z" fill="#FACD3D"/>
<path d="M282.288 141.075C282.288 97.075 246.288 61.075 202.288 61.075C158.288 61.075 122.288 97.075 122.288 141.075C122.288 185.075 158.288 221.075 202.288 221.075C246.288 221.075 282.288 185.075 282.288 141.075ZM202.288 205.075C167.088 205.075 138.288 176.275 138.288 141.075C138.288 105.875 167.088 77.075 202.288 77.075C237.488 77.075 266.288 105.875 266.288 141.075C266.288 176.275 237.488 205.075 202.288 205.075Z" fill="#FACD3D"/>
</g>
<defs>
<clipPath id="clip0_1_2">
<rect width="405.075" height="405.075" fill="white"/>
</clipPath>
</defs>
</svg>
