<svg width="411" height="437" viewBox="0 0 411 437" fill="none" xmlns="http://www.w3.org/2000/svg">
<g clip-path="url(#clip0_1_2)">
<path d="M63.4313 297.868C61.939 296.281 59.8679 295.375 57.7567 295.375C55.6447 295.375 53.5745 296.281 52.0814 297.868C50.5883 299.464 49.7294 301.657 49.7294 303.91C49.7294 306.156 50.5875 308.349 52.0814 309.945C53.5745 311.533 55.6447 312.446 57.7567 312.446C59.8679 312.446 61.939 311.533 63.4313 309.945C64.9244 308.349 65.7841 306.156 65.7841 303.91C65.7841 301.666 64.9252 299.464 63.4313 297.868Z" fill="#FACD3D"/>
<path d="M313.615 203.57C295.894 190.923 275.201 184.237 253.776 184.237H249.088C263.827 170.981 273.21 151.192 273.21 129.106V74.3472C276.669 67.4952 278.637 59.671 278.637 51.3646V8.53516C278.637 3.82204 275.042 0 270.61 0H177.2C151.297 0 130.224 22.4056 130.224 49.9469V64.0196C130.224 72.3576 132.903 80.0376 137.384 86.1556V129.105C137.384 151.19 146.766 170.981 161.505 184.236H157.222C132.803 184.236 108.896 193.18 89.9031 209.421C71.1985 225.414 57.9213 247.839 52.5181 272.562C51.5147 277.153 54.2014 281.74 58.5194 282.806C59.131 282.957 59.7411 283.03 60.3432 283.03C63.9924 283.03 67.2932 280.367 68.1546 276.426C77.0858 235.563 109.035 206.107 147.577 201.857L199.822 257.408C201.39 259.074 203.444 259.907 205.498 259.907C207.553 259.907 209.607 259.074 211.175 257.408L263.426 201.851C278.179 203.497 292.279 208.902 304.667 217.743C308.348 220.37 313.335 219.328 315.806 215.414C318.277 211.499 317.296 206.197 313.615 203.57ZM146.28 64.0196V49.9469C146.28 31.8191 160.15 17.0703 177.2 17.0703H262.584V51.3654C262.584 68.8386 249.215 83.0539 232.781 83.0539H164.181C154.31 83.0539 146.28 74.5153 146.28 64.0196ZM205.5 239.301L169.766 201.306H204.989C205.092 201.307 205.194 201.314 205.298 201.314C205.401 201.314 205.503 201.307 205.607 201.306H241.235L205.5 239.301ZM205.607 184.236H204.989C176.536 184.057 153.439 159.399 153.439 129.105V98.2618C156.817 99.4636 160.427 100.124 164.181 100.124H232.781C241.734 100.124 250.09 97.3716 257.157 92.6355V129.105C257.157 159.399 234.06 184.058 205.607 184.236Z" fill="#FACD3D"/>
<path d="M221.555 315.988C209.298 315.988 198.904 324.623 195.468 336.472H112.556C109.121 324.623 98.7267 315.988 86.4697 315.988C71.4201 315.988 59.1768 329.006 59.1768 345.007C59.1768 349.907 60.3295 354.525 62.354 358.577L40.0556 382.286C36.2443 380.133 31.9015 378.908 27.293 378.908C12.2433 378.908 0 391.926 0 407.928C0 423.929 12.2433 436.947 27.293 436.947C42.3426 436.947 54.5859 423.929 54.5859 407.928C54.5859 403.028 53.4332 398.41 51.4087 394.358L73.7071 370.648C77.5185 372.801 81.8612 374.026 86.4697 374.026C98.7267 374.026 109.121 365.391 112.556 353.542H195.468C198.904 365.391 209.298 374.026 221.555 374.026C236.604 374.026 248.848 361.008 248.848 345.006C248.848 329.005 236.604 315.988 221.555 315.988ZM27.293 419.877C21.0959 419.877 16.0547 414.517 16.0547 407.928C16.0547 401.338 21.0959 395.978 27.293 395.978C33.4901 395.978 38.5312 401.338 38.5312 407.928C38.5312 414.517 33.4901 419.877 27.293 419.877ZM86.4697 356.956C80.2726 356.956 75.2315 351.596 75.2315 345.007C75.2315 338.418 80.2726 333.058 86.4697 333.058C92.6669 333.058 97.708 338.418 97.708 345.007C97.708 351.596 92.6661 356.956 86.4697 356.956ZM221.555 356.956C215.358 356.956 210.316 351.596 210.316 345.007C210.316 338.418 215.358 333.058 221.555 333.058C227.752 333.058 232.793 338.418 232.793 345.007C232.793 351.596 227.752 356.956 221.555 356.956Z" fill="#FACD3D"/>
<path d="M263.369 303.963C261.875 302.375 259.804 301.462 257.694 301.462C255.575 301.462 253.504 302.374 252.01 303.963C250.518 305.55 249.658 307.751 249.658 309.997C249.658 312.242 250.517 314.444 252.01 316.03C253.504 317.626 255.575 318.532 257.694 318.532C259.805 318.532 261.868 317.626 263.369 316.03C264.862 314.444 265.713 312.242 265.713 309.997C265.713 307.751 264.862 305.559 263.369 303.963Z" fill="#FACD3D"/>
<path d="M402.973 146.847H374.162C369.729 146.847 366.134 150.669 366.134 155.383C366.134 160.096 369.729 163.918 374.162 163.918H383.728L273.964 280.626C270.829 283.959 270.829 289.363 273.964 292.697C275.531 294.363 277.586 295.197 279.64 295.197C281.694 295.197 283.748 294.363 285.316 292.697L394.945 176.132V186.015C394.945 190.728 398.54 194.55 402.973 194.55C407.405 194.55 411 190.728 411 186.015V155.383C411 150.669 407.405 146.847 402.973 146.847Z" fill="#FACD3D"/>
<path d="M188.98 121.285C187.487 119.698 185.416 118.784 183.304 118.784C181.185 118.784 179.122 119.697 177.629 121.285C176.129 122.872 175.277 125.074 175.277 127.327C175.277 129.572 176.129 131.766 177.629 133.362C179.122 134.949 181.186 135.854 183.304 135.854C185.416 135.854 187.487 134.949 188.98 133.362C190.472 131.766 191.332 129.572 191.332 127.327C191.332 125.074 190.472 122.872 188.98 121.285Z" fill="#FACD3D"/>
<path d="M233.145 121.285C231.653 119.698 229.582 118.784 227.471 118.784C225.36 118.784 223.289 119.697 221.796 121.285C220.302 122.872 219.443 125.074 219.443 127.327C219.443 129.572 220.302 131.774 221.796 133.362C223.289 134.949 225.36 135.854 227.471 135.854C229.582 135.854 231.653 134.949 233.145 133.362C234.638 131.774 235.498 129.572 235.498 127.327C235.498 125.074 234.639 122.872 233.145 121.285Z" fill="#FACD3D"/>
<path d="M340.359 286.781C301.408 286.781 269.719 320.475 269.719 361.891C269.719 403.306 301.408 437 340.359 437C379.31 437 411 403.306 411 361.891C411 320.475 379.31 286.781 340.359 286.781ZM340.359 419.93C310.261 419.93 285.773 393.893 285.773 361.891C285.773 329.888 310.261 303.852 340.359 303.852C370.458 303.852 394.945 329.888 394.945 361.891C394.945 393.893 370.458 419.93 340.359 419.93Z" fill="#FACD3D"/>
<path d="M340.361 353.896C336.652 353.896 333.519 351.234 333.519 348.082C333.518 344.93 336.651 342.268 340.359 342.268C344.068 342.268 347.201 344.93 347.201 348.082C347.201 352.795 350.796 356.617 355.228 356.617C359.661 356.617 363.256 352.795 363.256 348.082C363.256 338.276 357.051 329.893 348.359 326.643C348.081 322.198 344.611 318.681 340.359 318.681C336.108 318.681 332.638 322.198 332.359 326.643C323.668 329.893 317.463 338.276 317.463 348.082C317.463 360.7 327.735 370.966 340.359 370.966C344.068 370.966 347.201 373.628 347.201 376.779C347.201 379.931 344.068 382.593 340.359 382.593C336.651 382.593 333.518 379.931 333.518 376.779C333.518 372.066 329.923 368.244 325.49 368.244C321.058 368.244 317.463 372.066 317.463 376.779C317.463 386.606 323.694 395.004 332.413 398.239C332.941 402.41 336.293 405.631 340.36 405.631C344.428 405.631 347.78 402.41 348.307 398.239C357.027 395.004 363.257 386.606 363.257 376.779C363.257 364.162 352.986 353.896 340.361 353.896Z" fill="#FACD3D"/>
</g>
<defs>
<clipPath id="clip0_1_2">
<rect width="411" height="437" fill="white"/>
</clipPath>
</defs>
</svg>
