<svg width="480" height="480" viewBox="0 0 480 480" fill="none" xmlns="http://www.w3.org/2000/svg">
<g clip-path="url(#clip0_1_2)">
<path d="M342.662 102.54L333.373 115.571C419.739 177.079 439.89 296.955 378.382 383.321C316.874 469.687 196.998 489.838 110.632 428.33C24.266 366.822 4.11401 246.946 65.623 160.58C81.588 138.163 102.187 119.44 126.022 105.681L118.014 91.837C18.524 149.289 -15.555 276.515 41.897 376.005C79.055 440.352 147.714 479.993 222.018 480.001C336.902 479.992 430.027 386.853 430.018 271.969C430.012 204.689 397.467 141.566 342.662 102.54Z" fill="#FACD3D"/>
<path d="M86.017 272.001C86.014 250.615 91.077 229.532 100.791 210.479L110.587 234.97L125.446 229.033L109.446 189.033C108.024 185.442 104.231 183.387 100.446 184.158L60.446 192.158L63.587 207.846L86.522 203.259C48.493 278.026 78.275 369.465 153.042 407.494C156.273 409.138 159.563 410.665 162.903 412.073L169.13 397.339C118.71 376.113 85.948 326.707 86.017 272.001Z" fill="#FACD3D"/>
<path d="M370.017 272.001C370.171 230.519 353.217 190.807 323.15 162.228L312.08 173.775C366.32 225.704 368.193 311.772 316.264 366.011C313.017 369.402 309.597 372.623 306.018 375.66V352.001H290.018V392.001C290.019 395.813 292.709 399.096 296.448 399.845L336.448 407.845L339.589 392.157L316.705 387.582C350.552 358.728 370.04 316.479 370.017 272.001Z" fill="#FACD3D"/>
<path d="M310.021 105.077C308.804 104.373 307.423 104.002 306.018 104.001H260.073L281.815 9.79801C282.805 5.49001 280.115 1.19401 275.807 0.204007C275.22 0.0690074 274.62 0.00100737 274.018 0.00100737H202.018C198.268 7.36784e-06 195.021 2.60501 194.209 6.26701L162.209 150.267C161.683 152.636 162.259 155.115 163.775 157.009C165.295 158.9 167.591 160 170.017 160.001H232.122L210.193 262.321C209.368 266.17 211.465 270.047 215.138 271.462C216.054 271.819 217.029 272.002 218.013 272.001C220.868 272.001 223.508 270.48 224.939 268.009L312.939 116.009C315.152 112.184 313.846 107.29 310.021 105.077ZM236.439 216.212L249.841 153.681C250.769 149.361 248.019 145.107 243.699 144.179C243.146 144.06 242.582 144 242.017 144.001H179.99L208.435 16.001H263.962L242.22 110.204C241.23 114.512 243.92 118.808 248.228 119.798C248.815 119.933 249.415 120.001 250.017 120.001H292.142L236.439 216.212Z" fill="#FACD3D"/>
<path d="M266.522 235.993L252.67 244.009C263.708 263.146 257.142 287.608 238.005 298.646C218.868 309.684 194.406 303.118 183.368 283.981C172.33 264.844 178.896 240.382 198.033 229.344C200.151 228.123 202.376 227.098 204.681 226.282L199.353 211.188C170.19 221.499 154.908 253.5 165.219 282.663C173.13 305.038 194.285 319.998 218.017 320.001C248.953 319.993 274.025 294.907 274.017 263.971C274.015 254.149 271.43 244.5 266.522 235.993Z" fill="#FACD3D"/>
<path d="M464.264 35.001C463.895 34.539 463.476 34.12 463.014 33.751L423.014 1.75099C419.562 -1.00801 414.527 -0.446014 411.769 3.00599C410.636 4.42399 410.018 6.18499 410.018 8.00099V23.354L383.014 1.75099C379.562 -1.00801 374.527 -0.446014 371.769 3.00599C370.636 4.42399 370.018 6.18499 370.018 8.00099V72.001C370.019 76.42 373.602 80.002 378.022 80.001C379.836 80.001 381.597 79.384 383.015 78.251L410.019 56.648V72.001C410.02 76.42 413.603 80.002 418.023 80.001C419.837 80.001 421.598 79.384 423.016 78.251L463.016 46.251C466.465 43.49 467.025 38.453 464.264 35.001ZM386.017 55.353V24.649L405.212 40.001L386.017 55.353ZM426.017 55.353V24.649L445.212 40.001L426.017 55.353Z" fill="#FACD3D"/>
</g>
<defs>
<clipPath id="clip0_1_2">
<rect width="480.001" height="480.001" fill="white"/>
</clipPath>
</defs>
</svg>
